<svg id="kitchen" xmlns="http://www.w3.org/2000/svg" width="98.369" height="80.694" viewBox="0 0 98.369 80.694">
  <g id="Grupo_7" data-name="Grupo 7" transform="translate(0 0)">
    <path id="Trazado_26" data-name="Trazado 26" d="M94.527,46H3.843A3.847,3.847,0,0,0,0,49.842v4.8a3.842,3.842,0,0,0,1.921,3.323V114.2a3.842,3.842,0,0,0,1.921,3.323v7.244a1.921,1.921,0,0,0,1.921,1.921H92.605a1.921,1.921,0,0,0,1.921-1.921v-7.244a3.842,3.842,0,0,0,1.921-3.323V57.967a3.842,3.842,0,0,0,1.921-3.323v-4.8A3.847,3.847,0,0,0,94.527,46Zm0,3.843v4.8H3.843v-4.8ZM51.106,114.2v-6.723a1.921,1.921,0,1,0-3.843,0V114.2H5.764V73.858h41.5V90.19a1.921,1.921,0,0,0,3.843,0V73.858h41.5V114.2ZM32.149,58.487h0V70.016H5.764V58.487ZM62.377,70.016H35.992V58.487H62.377Zm30.228,0H66.22V58.487H92.605ZM7.685,122.85v-4.8h83v4.8Z" transform="translate(0 -45.999)" fill="#7c7c7c"/>
    <path id="Trazado_27" data-name="Trazado 27" d="M295.607,211h-7.685A1.921,1.921,0,0,0,286,212.925v19.213a1.921,1.921,0,0,0,1.921,1.921h7.685a1.921,1.921,0,0,0,1.921-1.921V212.925A1.921,1.921,0,0,0,295.607,211Zm-1.921,19.213h-3.843v-15.37h3.843Z" transform="translate(-231.052 -179.302)" fill="#7c7c7c"/>
    <path id="Trazado_28" data-name="Trazado 28" d="M175.605,211H167.92A1.921,1.921,0,0,0,166,212.925v19.213a1.921,1.921,0,0,0,1.921,1.921h7.685a1.921,1.921,0,0,0,1.921-1.921V212.925A1.922,1.922,0,0,0,175.605,211Zm-1.921,19.213h-3.843v-15.37h3.843Z" transform="translate(-134.106 -179.302)" fill="#7c7c7c"/>
    <path id="Trazado_29" data-name="Trazado 29" d="M90.588,134.844a1.921,1.921,0,0,0,0-3.843h0a1.921,1.921,0,1,0,0,3.843Z" transform="translate(-71.631 -114.67)" fill="#7c7c7c"/>
    <path id="Trazado_30" data-name="Trazado 30" d="M247.922,131h0a1.921,1.921,0,1,0,1.923,1.921A1.921,1.921,0,0,0,247.921,131Z" transform="translate(-198.737 -114.67)" fill="#7c7c7c"/>
    <path id="Trazado_31" data-name="Trazado 31" d="M405.255,134.844a1.921,1.921,0,1,0,0-3.843h0a1.921,1.921,0,1,0,0,3.843Z" transform="translate(-325.842 -114.67)" fill="#7c7c7c"/>
    <path id="Trazado_32" data-name="Trazado 32" d="M247.921,311.008a1.922,1.922,0,1,0,1.921,1.922v0A1.921,1.921,0,0,0,247.921,311.008Z" transform="translate(-198.737 -260.092)" fill="#7c7c7c"/>
  </g>
</svg>
