<svg xmlns="http://www.w3.org/2000/svg" width="93" height="92.999" viewBox="0 0 93 92.999">
  <g id="fashion" transform="translate(0 -0.002)">
    <g id="Grupo_15" data-name="Grupo 15" transform="translate(0 0.002)">
      <g id="Grupo_14" data-name="Grupo 14" transform="translate(0)">
        <path id="Trazado_36" data-name="Trazado 36" d="M92.561,33.441l-15-15a1.5,1.5,0,0,0-.792-.414l-16.5-3a1.5,1.5,0,0,0-1.744,1.207,1.485,1.485,0,0,0-.024.267,8.9,8.9,0,0,1-.127,1.422L48,15.332v-.48A7.5,7.5,0,1,0,39,7.5h3A4.5,4.5,0,1,1,46.5,12,1.5,1.5,0,0,0,45,13.5V15.33L34.628,17.924A8.9,8.9,0,0,1,34.5,16.5a1.5,1.5,0,0,0-.538-1.152,1.465,1.465,0,0,0-1.23-.322l-16.5,3a1.5,1.5,0,0,0-.792.414l-15,15a1.5,1.5,0,0,0,0,2.121l12,12a1.5,1.5,0,0,0,2.121,0L18,44.123V54H7.5A7.477,7.477,0,0,0,3.047,67.5a7.431,7.431,0,0,0,0,12A7.477,7.477,0,0,0,7.5,93h54a1.5,1.5,0,0,0,1.06-.439l12-12a1.486,1.486,0,0,0,.426-1.061H75V44.123l3.439,3.439a1.5,1.5,0,0,0,2.121,0l12-12A1.5,1.5,0,0,0,92.561,33.441ZM46.5,18.047l10.908,2.727A12.238,12.238,0,0,1,46.5,26.814a12.238,12.238,0,0,1-10.908-6.04ZM3,61.5A4.5,4.5,0,0,1,7.5,57h33a4.5,4.5,0,1,1,0,9H7.5A4.5,4.5,0,0,1,3,61.5Zm0,12A4.5,4.5,0,0,1,7.5,69h33a4.5,4.5,0,1,1,0,9H7.5A4.5,4.5,0,0,1,3,73.5ZM40.5,90H7.5a4.5,4.5,0,1,1,0-9h33a4.5,4.5,0,1,1,0,9ZM63,87.88V81h6.879Zm16.5-43.5-9.439-9.439L67.94,37.062,72,41.123V78H61.5A1.5,1.5,0,0,0,60,79.5V90H46.461a7.4,7.4,0,0,0-1.336-10.377q-.081-.063-.164-.123a7.431,7.431,0,0,0,0-12A7.477,7.477,0,0,0,40.5,54H21V41.123l4.06-4.06L22.94,34.941,13.5,44.381,3.622,34.5,17.23,20.894l14.4-2.617c.981,6.5,7.275,11.538,14.868,11.538S60.384,24.78,61.365,18.276l14.4,2.617L89.379,34.5Z" transform="translate(0 -0.002)" fill="#7c7c7c"/>
        <rect id="Rectángulo_22" data-name="Rectángulo 22" width="36" height="4" transform="translate(6 60.002)" fill="#7c7c7c"/>
        <rect id="Rectángulo_23" data-name="Rectángulo 23" width="35" height="4" transform="translate(6 71.002)" fill="#7c7c7c"/>
        <rect id="Rectángulo_24" data-name="Rectángulo 24" width="35" height="3" transform="translate(6 84.002)" fill="#7c7c7c"/>
      </g>
    </g>
  </g>
</svg>
