<svg xmlns="http://www.w3.org/2000/svg" width="116" height="71.097" viewBox="0 0 116 71.097">
  <g id="sofa_1_" data-name="sofa (1)" transform="translate(-8 -104)">
    <path id="Trazado_37" data-name="Trazado 37" d="M117.452,122.71h-4.677v-7.484A11.238,11.238,0,0,0,101.548,104H75.355A11.226,11.226,0,0,0,66,109.031,11.226,11.226,0,0,0,56.645,104H30.452a11.238,11.238,0,0,0-11.226,11.226v7.484H14.548A6.556,6.556,0,0,0,8,129.258v36.484a1.871,1.871,0,0,0,1.871,1.871h3.742v5.613a1.871,1.871,0,0,0,1.871,1.871H21.1a1.871,1.871,0,0,0,1.815-1.417l1.518-6.067h83.141l1.518,6.067A1.871,1.871,0,0,0,110.9,175.1h5.613a1.871,1.871,0,0,0,1.871-1.871v-5.613h3.742A1.871,1.871,0,0,0,124,165.742V129.258A6.556,6.556,0,0,0,117.452,122.71ZM19.635,171.355h-2.28v-3.742h3.216Zm7.075-7.484H11.742V129.258a2.809,2.809,0,0,1,2.806-2.806H23.9a2.809,2.809,0,0,1,2.806,2.806ZM23.9,122.71h-.935v-7.484a7.494,7.494,0,0,1,7.484-7.484H56.645a7.494,7.494,0,0,1,7.484,7.484v26.194H37.935a11.179,11.179,0,0,0-7.484,2.867V129.258A6.556,6.556,0,0,0,23.9,122.71Zm77.645,41.161h-71.1V152.645a7.494,7.494,0,0,1,7.484-7.484H94.065a7.494,7.494,0,0,1,7.484,7.484Zm0-34.613v15.029a11.179,11.179,0,0,0-7.484-2.867H67.871V115.226a7.494,7.494,0,0,1,7.484-7.484h26.194a7.494,7.494,0,0,1,7.484,7.484v7.484H108.1a6.556,6.556,0,0,0-6.548,6.548Zm13.1,42.1h-2.28l-.935-3.742h3.216Zm5.613-7.484H105.29V129.258a2.809,2.809,0,0,1,2.806-2.806h9.355a2.809,2.809,0,0,1,2.806,2.806Z" fill="#7c7c7c"/>
    <circle id="Elipse_7" data-name="Elipse 7" cx="2" cy="2" r="2" transform="translate(42 114.797)" fill="#7c7c7c"/>
    <ellipse id="Elipse_8" data-name="Elipse 8" cx="2" cy="1.5" rx="2" ry="1.5" transform="translate(42 126.797)" fill="#7c7c7c"/>
    <ellipse id="Elipse_9" data-name="Elipse 9" cx="2.5" cy="2" rx="2.5" ry="2" transform="translate(47 120.797)" fill="#7c7c7c"/>
    <ellipse id="Elipse_10" data-name="Elipse 10" cx="1" cy="2" rx="1" ry="2" transform="translate(37 120.797)" fill="#7c7c7c"/>
    <circle id="Elipse_11" data-name="Elipse 11" cx="2" cy="2" r="2" transform="translate(87 114.797)" fill="#7c7c7c"/>
    <ellipse id="Elipse_12" data-name="Elipse 12" cx="2" cy="1.5" rx="2" ry="1.5" transform="translate(87 126.797)" fill="#7c7c7c"/>
    <circle id="Elipse_13" data-name="Elipse 13" cx="2" cy="2" r="2" transform="translate(92 120.797)" fill="#7c7c7c"/>
    <ellipse id="Elipse_14" data-name="Elipse 14" cx="1.5" cy="2" rx="1.5" ry="2" transform="translate(81 120.797)" fill="#7c7c7c"/>
  </g>
</svg>
