<svg id="_002---Virus" data-name="002---Virus" xmlns="http://www.w3.org/2000/svg" width="69.681" height="69.689" viewBox="0 0 69.681 69.689">
<path id="Shape" d="M27.808,30.615A5.808,5.808,0,1,0,22,24.808,5.808,5.808,0,0,0,27.808,30.615Zm0-9.292a3.485,3.485,0,1,1-3.485,3.485A3.485,3.485,0,0,1,27.808,21.323Z" transform="translate(3.549 3.066)"/>
<path id="Shape-2" data-name="Shape" d="M38.485,30.969A3.485,3.485,0,1,0,35,27.485,3.485,3.485,0,0,0,38.485,30.969Zm0-4.646a1.162,1.162,0,1,1-1.162,1.162A1.162,1.162,0,0,1,38.485,26.323Z" transform="translate(5.649 3.873)"/>
<path id="Shape-3" data-name="Shape" d="M19.485,35.969A3.485,3.485,0,1,0,16,32.485,3.485,3.485,0,0,0,19.485,35.969Zm0-4.646a1.162,1.162,0,1,1-1.162,1.162A1.162,1.162,0,0,1,19.485,31.323Z" transform="translate(2.58 4.681)"/>
<path id="Shape-4" data-name="Shape" d="M25,37.969A6.969,6.969,0,1,0,31.969,31,6.969,6.969,0,0,0,25,37.969Zm11.615,0a4.646,4.646,0,1,1-4.646-4.646A4.646,4.646,0,0,1,36.615,37.969Z" transform="translate(4.034 5.004)"/>
<path id="Shape-5" data-name="Shape" d="M4.645,39.492a4.582,4.582,0,0,0,2.439-.7,2.056,2.056,0,0,1,1.18-.389c1.489.078,3.7.243,6.1.581A20.2,20.2,0,0,0,15.03,41.5c-2.006,1.572-3.863,2.826-5.063,3.6a1.709,1.709,0,0,1-1.011.2,4.709,4.709,0,0,0-3.312,1.135A4.644,4.644,0,0,0,11,53.973a4.57,4.57,0,0,0,1.789-1.836,2.064,2.064,0,0,1,.813-.913c1.137-.581,4-1.835,5.6-2.517A20.612,20.612,0,0,0,21.023,50.5c-.993,2.469-2.036,4.579-2.607,5.678a1.618,1.618,0,0,1-.762.67,4.648,4.648,0,1,0,6.737,4.019,2.091,2.091,0,0,1,.253-1.216c.813-1.254,2.065-3.091,3.56-5a20.3,20.3,0,0,0,2.473.675c.161,1.423.544,4.878.605,6.211a1.635,1.635,0,0,1-.315.952,4.66,4.66,0,0,0,3.1,7.149,4.836,4.836,0,0,0,.778.059,4.636,4.636,0,0,0,4.646-4.646,4.579,4.579,0,0,0-.714-2.473,1.98,1.98,0,0,1-.368-1.138c.078-1.49.239-3.7.581-6.1a20.575,20.575,0,0,0,2.505-.685c1.645,2.1,2.946,4.053,3.611,5.093a1.626,1.626,0,0,1,.2.994,4.661,4.661,0,0,0,4.667,4.91,4.53,4.53,0,0,0,1.591-.286,4.646,4.646,0,0,0,2.408-6.682,4.568,4.568,0,0,0-1.819-1.77,2.091,2.091,0,0,1-.929-.829c-.678-1.33-1.642-3.329-2.555-5.586a20.5,20.5,0,0,0,1.819-1.8c2.788,1.209,4.849,2.148,5.679,2.581a1.626,1.626,0,0,1,.677.769,4.653,4.653,0,1,0,6.476-6.124A4.593,4.593,0,0,0,60.8,45.3a1.908,1.908,0,0,1-1.144-.25c-1.779-1.151-3.463-2.345-4.985-3.562a20.328,20.328,0,0,0,.654-2.5c2.637-.374,4.976-.524,6.208-.581a1.6,1.6,0,0,1,.959.325A4.646,4.646,0,1,0,65.046,30.2a4.579,4.579,0,0,0-2.439.7,2.135,2.135,0,0,1-1.18.389c-1.489-.078-3.7-.242-6.1-.581a20.166,20.166,0,0,0-.664-2.51c2-1.569,3.861-2.825,5.062-3.6a1.683,1.683,0,0,1,1.007-.2,4.681,4.681,0,0,0,3.31-1.136,4.646,4.646,0,1,0-7.145-5.7,2.064,2.064,0,0,1-.813.913c-1.137.581-4,1.835-5.6,2.517a20.611,20.611,0,0,0-1.813-1.79c.993-2.469,2.036-4.579,2.607-5.678a1.626,1.626,0,0,1,.762-.67,4.646,4.646,0,1,0-6.116-6.476A4.58,4.58,0,0,0,45.3,8.827a2.091,2.091,0,0,1-.253,1.216c-.813,1.254-2.064,3.09-3.56,5a20.515,20.515,0,0,0-2.473-.675c-.161-1.429-.545-4.894-.605-6.218a1.6,1.6,0,0,1,.311-.937A4.646,4.646,0,1,0,30.2,4.646a4.588,4.588,0,0,0,.712,2.469,1.992,1.992,0,0,1,.371,1.145c-.066,1.271-.408,4.374-.621,6.106a20.188,20.188,0,0,0-2.461.676c-1.644-2.091-2.945-4.051-3.611-5.093a1.626,1.626,0,0,1-.2-.992,4.646,4.646,0,1,0-8.666,2.058,4.572,4.572,0,0,0,1.821,1.769,2.083,2.083,0,0,1,.929.828c.678,1.33,1.644,3.33,2.555,5.587A20.479,20.479,0,0,0,19.214,21c-1.313-.569-4.493-1.961-5.68-2.581a1.626,1.626,0,0,1-.677-.769,4.656,4.656,0,1,0-3.964,6.739,1.92,1.92,0,0,1,1.142.25,60.6,60.6,0,0,1,4.984,3.564,20.418,20.418,0,0,0-.653,2.5c-2.632.373-4.974.523-6.207.581A1.626,1.626,0,0,1,7.2,30.96a4.646,4.646,0,1,0-2.553,8.532ZM22.7,58.379a4.331,4.331,0,0,0-.627,2.555,2.275,2.275,0,0,1-.311,1.225A2.323,2.323,0,1,1,18.7,58.917a3.869,3.869,0,0,0,1.779-1.684c.647-1.246,1.545-3.086,2.439-5.227a20.966,20.966,0,0,0,3.035,1.753C24.594,55.533,23.462,57.2,22.7,58.379ZM49.15,57.135a4.34,4.34,0,0,0,1.9,1.821,2.263,2.263,0,0,1,.9.88,2.323,2.323,0,1,1-4.333,1.028,3.874,3.874,0,0,0-.569-2.382c-.624-.976-1.806-2.755-3.308-4.717A20.792,20.792,0,0,0,46.775,52C47.637,54.072,48.516,55.89,49.15,57.135ZM61.3,33.6a4.309,4.309,0,0,0,2.526-.735,2.386,2.386,0,0,1,2.992.475,2.323,2.323,0,0,1-3.058,3.445,3.91,3.91,0,0,0-2.347-.7c-1.156.052-3.286.187-5.736.506.048-.581.074-1.162.074-1.75s-.026-1.172-.074-1.752c2.216.288,4.228.434,5.623.508ZM47,11.313a4.331,4.331,0,0,0,.627-2.555,2.275,2.275,0,0,1,.311-1.225,2.323,2.323,0,1,1,3.057,3.243,3.877,3.877,0,0,0-1.778,1.684c-.647,1.246-1.545,3.086-2.433,5.227a20.966,20.966,0,0,0-3.035-1.753C45.1,14.159,46.229,12.487,47,11.313ZM20.541,12.557a4.335,4.335,0,0,0-1.9-1.82,2.275,2.275,0,0,1-.9-.882,2.323,2.323,0,1,1,4.333-1.021,3.873,3.873,0,0,0,.569,2.381c.755,1.18,1.9,2.877,3.31,4.719a20.924,20.924,0,0,0-3.033,1.757c-.86-2.071-1.739-3.89-2.374-5.135ZM11.3,22.689a4.151,4.151,0,0,0-2.51-.62,2.25,2.25,0,0,1-1.253-.307A2.323,2.323,0,1,1,10.775,18.7a3.883,3.883,0,0,0,1.687,1.789c1.2.625,4.161,1.927,5.819,2.647a2.323,2.323,0,0,0,2.666-.61,18.539,18.539,0,0,1,10.173-5.879,2.323,2.323,0,0,0,1.868-2.013c.2-1.763.548-4.92.617-6.254a4.25,4.25,0,0,0-.733-2.511,2.271,2.271,0,0,1-.348-1.224A2.323,2.323,0,1,1,36.781,5.94a3.861,3.861,0,0,0-.7,2.323c.062,1.344.414,4.571.618,6.375a2.323,2.323,0,0,0,1.867,2.009,18.523,18.523,0,0,1,10.169,5.876,2.329,2.329,0,0,0,2.672.607c1.626-.709,4.53-1.989,5.731-2.6a4.32,4.32,0,0,0,1.8-1.883,2.294,2.294,0,0,1,.894-.916,2.323,2.323,0,0,1,2.7,3.754,2.384,2.384,0,0,1-1.673.581,3.907,3.907,0,0,0-2.393.566c-1.248.8-3.17,2.1-5.243,3.725a2.334,2.334,0,0,0-.753,2.584,18.639,18.639,0,0,1,0,11.8,2.335,2.335,0,0,0,.753,2.581C54.817,44.574,56.558,45.81,58.4,47a4.19,4.19,0,0,0,2.508.624,2.221,2.221,0,0,1,1.253.307,2.323,2.323,0,1,1-3.243,3.062A3.875,3.875,0,0,0,57.23,49.2c-1.186-.619-4.154-1.925-5.818-2.647a2.323,2.323,0,0,0-2.672.61,18.453,18.453,0,0,1-10.965,6.019,1.171,1.171,0,0,0-.971,1c-.433,2.8-.63,5.42-.718,7.127a4.225,4.225,0,0,0,.729,2.507,2.27,2.27,0,0,1,.353,1.229,2.32,2.32,0,1,1-4.254-1.29,3.9,3.9,0,0,0,.7-2.332c-.063-1.353-.414-4.571-.618-6.368a2.323,2.323,0,0,0-1.865-2.007,18.524,18.524,0,0,1-10.17-5.877,2.35,2.35,0,0,0-1.757-.8,2.31,2.31,0,0,0-.916.19c-1.626.709-4.53,1.989-5.731,2.6a4.32,4.32,0,0,0-1.8,1.883,2.287,2.287,0,0,1-.894.916,2.323,2.323,0,0,1-2.7-3.756,2.373,2.373,0,0,1,1.669-.581,3.933,3.933,0,0,0,2.392-.567c1.246-.8,3.168-2.1,5.244-3.726a2.334,2.334,0,0,0,.753-2.583,18.639,18.639,0,0,1,0-11.8,2.335,2.335,0,0,0-.752-2.586c-1.583-1.247-3.324-2.483-5.169-3.676ZM2.351,34.443A2.337,2.337,0,0,1,5.925,32.9a3.884,3.884,0,0,0,2.347.7c1.394-.063,3.437-.2,5.735-.505-.048.581-.073,1.162-.073,1.749s.027,1.172.074,1.752c-2.216-.288-4.228-.434-5.623-.508a4.359,4.359,0,0,0-2.526.735,2.383,2.383,0,0,1-2.987-.469,2.316,2.316,0,0,1-.516-1.913Z" transform="translate(-0.004 -0.003)"/>
</svg>